PathFileType	4	(X/Y/Z)	E:\Qualisys_Data\Carbon_Farble_Plate\Data\Amateur_Runner\S14\T3\S14T3V23_c3d.trc
DataRate	CameraRate	NumFrames	NumMarkers	Units	OrigDataRate	OrigDataStartFrame	OrigNumFrames
200.000000	200.000000	4	39	mm	200.000000	107	286
Frame#	Time	LSHO			RSHO			LICST			RICST			LASIS			LHEEL			RASIS			LTROC			RTROC			SACR			LTH1			LSK4			LTH2			LTH3			RHM5			LSK2			LTH4			RTH1			LTOE			RTH2			RTH3			RTH4			LLEP			RLEP			LSK1			LSK3			RSK1			LHM5			RSK2			LFT1			RSK3			RSK4			LLME			RLME			RTOE			RHEEL			RFT1			RFT2			LFT2			
		X1	Y1	Z1	X2	Y2	Z2	X3	Y3	Z3	X4	Y4	Z4	X5	Y5	Z5	X6	Y6	Z6	X7	Y7	Z7	X8	Y8	Z8	X9	Y9	Z9	X10	Y10	Z10	X11	Y11	Z11	X12	Y12	Z12	X13	Y13	Z13	X14	Y14	Z14	X15	Y15	Z15	X16	Y16	Z16	X17	Y17	Z17	X18	Y18	Z18	X19	Y19	Z19	X20	Y20	Z20	X21	Y21	Z21	X22	Y22	Z22	X23	Y23	Z23	X24	Y24	Z24	X25	Y25	Z25	X26	Y26	Z26	X27	Y27	Z27	X28	Y28	Z28	X29	Y29	Z29	X30	Y30	Z30	X31	Y31	Z31	X32	Y32	Z32	X33	Y33	Z33	X34	Y34	Z34	X35	Y35	Z35	X36	Y36	Z36	X37	Y37	Z37	X38	Y38	Z38	X39	Y39	Z39	

108	0.535	-702.9971923828125	1410.135864257812	-520.620849609375	-719.193603515625	1412.583374023438	-215.4957122802734	-779.5953369140625	967.7904052734376	-491.5075988769531	-737.908935546875	969.4075317382812	-215.8097991943359	-738.1112670898438	915.0587158203124	-472.2254638671875	-1215.625244140625	170.1847381591797	-344.0874328613281	-716.3112182617188	925.311767578125	-237.8862457275391	-883.302001953125	859.41796875	-499.3593444824219	-845.3920288085938	849.8992309570312	-171.4385986328125	-899.8368530273438	977.3790893554688	-348.7415466308594	-844.0662231445312	622.9493408203125	-492.3663330078125	-1062.622924804688	332.1211853027344	-430.1791381835938	-917.6582641601562	635.1951904296875	-470.3873596191406	-847.6953735351562	527.1087646484375	-463.7805480957031	-865.1552734375	163.1443023681641	-171.2229919433594	-1001.163024902344	405.6820678710938	-453.7093505859375	-925.7803344726562	539.5341186523438	-448.3911743164062	-626.3095092773438	700.3203125	-176.9595489501953	-991.0275268554688	61.74523162841797	-371.29345703125	-695.9108276367188	664.9874877929688	-165.1982574462891	-578.7342529296875	613.3298950195312	-198.2261505126953	-651.255126953125	574.1150512695312	-178.810302734375	-910.606201171875	459.2238159179688	-455.4552917480469	-611.240234375	528.2100830078125	-185.8188629150391	-935.1312866210938	355.5435180664062	-445.20947265625	-1001.214477539062	279.5836486816406	-425.7380981445312	-664.05078125	430.06982421875	-184.1008453369141	-1058.19482421875	69.69395446777344	-432.5957641601562	-722.1043090820312	494.6893920898438	-182.4910125732422	-1215.497924804688	139.6015777587891	-316.1153869628906	-747.0030517578125	366.5891723632812	-197.7397613525391	-793.6583862304688	430.8219299316406	-194.0440826416016	-1145.631713867188	172.1326141357422	-402.8021545410156	-907.18896484375	298.6679992675781	-209.1759338378906	-807.7085571289062	114.8018646240234	-235.5179748535156	-968.779296875	316.2488098144531	-265.6743774414062	-982.27197265625	286.4021606445312	-291.8916320800781	-987.493408203125	304.4080505371094	-241.6412353515625	-1227.41064453125	140.0585784912109	-367.9097900390625
109	0.54	-679.0620727539062	1414.234375	-519.7682495117188	-699.158935546875	1416.687744140625	-215.5272216796875	-755.7003784179688	970.7816772460938	-491.3826599121094	-715.5363159179688	972.5017700195312	-215.0647277832031	-715.1043701171875	917.556396484375	-472.0628662109375	-1207.190551757812	180.0130004882812	-346.26953125	-693.6541748046875	929.34228515625	-238.0565185546875	-861.250732421875	863.131591796875	-499.5285034179688	-821.72119140625	854.5933227539062	-170.1283111572266	-877.3365478515625	980.706298828125	-349.1210021972656	-828.4033813476562	626.9952392578125	-492.6291809082031	-1053.234375	339.3503112792969	-431.4705200195312	-901.76806640625	641.1241455078125	-470.6333923339844	-834.9138793945312	531.330810546875	-464.3929138183594	-819.733642578125	156.5018768310547	-170.8623962402344	-991.4201049804688	412.523193359375	-454.7327880859375	-912.3286743164062	545.5418090820312	-448.8865356445312	-602.0615844726562	706.1499633789062	-177.6365814208984	-988.75634765625	60.83681869506836	-372.6388549804688	-670.657958984375	670.5261840820312	-165.9010467529297	-553.4268798828125	620.131591796875	-199.5936737060547	-625.7005004882812	580.0436401367188	-180.0241088867188	-900.0795288085938	464.7137451171875	-456.4706420898438	-584.703369140625	534.0059814453125	-187.7474822998047	-925.9436645507812	361.3919677734375	-446.7275695800781	-991.9793090820312	286.1532897949219	-428.2765502929688	-633.939208984375	432.9164123535156	-185.2116088867188	-1055.151977539062	70.61322784423828	-433.7585144042969	-694.1663818359375	494.5780334472656	-184.5927581787109	-1208.32373046875	149.6061706542969	-317.8582763671875	-712.7183837890625	366.11181640625	-197.2188873291016	-762.7123413085938	426.9198913574219	-194.6354064941406	-1137.627807617188	178.9421234130859	-404.6686706542969	-869.94677734375	289.5877685546875	-209.04931640625	-759.658935546875	112.1681976318359	-234.9601440429688	-933.6314086914062	303.1351013183594	-264.1352233886719	-943.7996215820312	271.8599548339844	-290.4291687011719	-950.5985107421876	290.294189453125	-240.9067840576172	-1219.895629882812	149.8425140380859	-369.7142944335938
110	0.545	-654.9253540039062	1418.442260742188	-518.6826171875	-678.8599853515625	1420.87646484375	-215.2977294921875	-732.017822265625	973.4411010742188	-490.9730224609375	-693.0106811523438	977.0977172851562	-215.6370849609375	-692.102783203125	920.3655395507812	-471.3263244628906	-1197.431274414062	190.0606994628906	-348.2991638183594	-671.2968139648438	933.3970336914062	-238.1652069091797	-838.9898071289062	866.790771484375	-499.8074951171875	-797.84375	859.64990234375	-168.4801330566406	-853.81298828125	983.8887329101562	-349.5535583496094	-812.1992797851562	630.9739379882812	-493.2821655273438	-1043.936645507812	346.326171875	-433.0292358398438	-885.5455322265625	647.117431640625	-470.8729553222656	-821.412841796875	535.572998046875	-465.59716796875	-774.1069946289062	150.5590667724609	-170.4566040039062	-981.0359497070312	419.3721923828125	-455.96630859375	-898.7958374023438	551.8141479492188	-449.6784973144531	-577.6570434570312	712.1365356445312	-178.1749572753906	-986.3432006835938	60.14468383789062	-374.2841796875	-646.2235107421875	675.6087646484375	-166.3392181396484	-528.66015625	626.561279296875	-200.5246429443359	-600.4523315429688	585.307861328125	-181.5626068115234	-889.0230712890625	470.6604919433594	-457.3536987304688	-558.7838745117188	539.841064453125	-189.1695861816406	-916.0703735351562	367.7193908691406	-448.7735900878906	-982.9663696289062	292.4678649902344	-430.4850769042969	-603.7288818359375	435.6640930175781	-186.1644897460938	-1052.727905273438	71.2000732421875	-434.7115173339844	-666.9938354492188	493.9761047363281	-185.8602752685547	-1199.882934570312	160.0867462158203	-319.9172973632812	-678.9012451171875	364.5034790039062	-197.4414520263672	-732.2335205078125	422.9104614257812	-194.9961853027344	-1129.172729492188	185.8336029052734	-406.4764709472656	-831.915283203125	279.89794921875	-208.8837127685547	-711.8475952148438	108.7554092407227	-234.796875	-896.1744995117188	289.7526550292969	-265.0136413574219	-904.0117797851562	259.4739990234375	-291.4281005859375	-912.8281860351562	276.6960144042969	-240.0284118652344	-1211.932739257812	160.3537292480469	-371.4344177246094
111	0.55	-631.5099487304688	1422.691162109375	-517.7175903320312	-658.9053344726562	1424.89892578125	-215.8168029785156	-707.9249267578125	976.3589477539062	-490.7732543945312	-670.6121826171875	981.4656372070312	-215.9451599121094	-669.010009765625	923.1326293945312	-470.9609069824219	-1186.61376953125	200.2029113769531	-350.3973083496094	-649.1845092773438	937.856201171875	-237.8490447998047	-817.1712036132812	870.8309326171875	-500.1406860351562	-774.2192993164062	864.3914794921875	-167.1952209472656	-831.0338134765625	987.575927734375	-349.7607727050781	-796.19287109375	635.3722534179688	-493.7297058105469	-1034.710205078125	354.2001342773438	-434.4974060058594	-869.5135498046875	653.235107421875	-471.231201171875	-808.3733520507812	539.8990478515625	-466.5013122558594	-728.3297119140625	144.8677368164062	-170.394775390625	-970.27783203125	426.5048522949219	-457.2144165039062	-885.2235107421875	558.112060546875	-450.3951721191406	-553.7817993164062	717.3980102539062	-178.6574859619141	-983.7425537109376	58.62529373168945	-375.2087707519531	-622.1073608398438	680.4682006835938	-166.9871520996094	-503.9623413085938	632.4368286132812	-201.7441101074219	-575.6989135742188	590.9407958984375	-182.2941589355469	-877.4813842773438	476.6769104003906	-458.5737609863281	-533.3026733398438	545.091552734375	-190.5012359619141	-905.6029052734376	374.3562927246094	-450.2531127929688	-973.6170654296876	299.3556823730469	-433.1573486328125	-573.710693359375	438.1600952148438	-186.9017333984375	-1049.371704101562	72.28572082519531	-436.24169921875	-640.2022094726562	492.7962341308594	-186.6836700439453	-1190.674560546875	170.2311401367188	-321.6092224121094	-645.4337158203125	362.7428588867188	-197.95556640625	-701.6130981445312	418.71923828125	-195.1883544921875	-1119.230712890625	192.3512573242188	-408.7218322753906	-793.3023071289062	270.61083984375	-208.5630035400391	-664.4611206054688	106.346549987793	-234.7365570068359	-858.4310302734375	276.7294616699219	-264.0801696777344	-864.6277465820312	245.3824920654297	-291.1984252929688	-874.3778686523438	262.3626708984375	-239.4869995117188	-1202.863891601562	171.1949310302734	-373.3961181640625
